/* XPM */
static char *grass_floor[] = {
/* columns rows colors chars-per-pixel */
"64 43 220 2 ",
"   c #6F900A",
".  c #739506",
"X  c #72950C",
"o  c #799C0C",
"O  c #6E9210",
"+  c #779A13",
"@  c #6A8B07",
"#  c #7AA20A",
"$  c #7FA406",
"%  c #7D9D21",
"&  c #769628",
"*  c #84A905",
"=  c #81A60B",
"-  c #85AC0C",
";  c #8AAD0B",
":  c #83A701",
">  c #8CB305",
",  c #8DB802",
"<  c #8CB30B",
"1  c #8EB90C",
"2  c #93BC05",
"3  c #91B50F",
"4  c #94BC0B",
"5  c #98BF08",
"6  c #91B605",
"7  c #82A515",
"8  c #85AB13",
"9  c #8AAE12",
"0  c #88AA19",
"q  c #8DB414",
"w  c #8EB41B",
"e  c #90B515",
"r  c #94BC14",
"t  c #99BE13",
"y  c #92B61B",
"u  c #94BB1B",
"i  c #9ABE1A",
"p  c #83A624",
"a  c #89AD29",
"s  c #8FB42D",
"d  c #8FB522",
"f  c #93B421",
"g  c #95BC24",
"h  c #99BE23",
"j  c #92B52B",
"k  c #94BA2C",
"l  c #99BB28",
"z  c #8AA938",
"x  c #9ABD33",
"c  c #97BD3B",
"v  c #95B732",
"b  c #95C306",
"n  c #9AC504",
"m  c #9FC806",
"M  c #94C00F",
"N  c #9BC40B",
"B  c #9DC90B",
"V  c #9FD10C",
"C  c #9CC414",
"Z  c #9DCA13",
"A  c #96C11C",
"S  c #9DC41B",
"D  c #9ECA1B",
"F  c #97C113",
"G  c #A2C60D",
"H  c #A3CC0C",
"J  c #A1CA06",
"K  c #A5D20D",
"L  c #A9D40C",
"P  c #ABD90C",
"I  c #A8D205",
"U  c #B0DC0A",
"Y  c #A0C715",
"T  c #A3CC14",
"R  c #A8CE14",
"E  c #A1C61C",
"W  c #A4CC1B",
"Q  c #A9CF1D",
"!  c #A7D214",
"~  c #AAD413",
"^  c #ACDA15",
"/  c #A6D11C",
"(  c #AAD41C",
")  c #AEDA1A",
"_  c #A7D917",
"`  c #B1DD16",
"'  c #B2DC1C",
"]  c #B0D41B",
"[  c #9CC323",
"{  c #9EC825",
"}  c #9CC32B",
"|  c #9AC62A",
" . c #9BC233",
".. c #9EC932",
"X. c #9BC238",
"o. c #A1C623",
"O. c #A3CB24",
"+. c #A8CF24",
"@. c #A1C62B",
"#. c #A4CB2B",
"$. c #A9CE2C",
"%. c #A5D224",
"&. c #ABD424",
"*. c #ADD923",
"=. c #A6D22B",
"-. c #ABD42C",
";. c #ADD92C",
":. c #B0D623",
">. c #B2DC24",
",. c #B1D62C",
"<. c #B3DB2C",
"1. c #A1C431",
"2. c #A3CC33",
"3. c #A9CE31",
"4. c #A4C53B",
"5. c #A4CC3A",
"6. c #AACE3B",
"7. c #A6D234",
"8. c #ABD433",
"9. c #AEDA34",
"0. c #A6D13B",
"q. c #ABD33C",
"w. c #AEDA3C",
"e. c #B0D633",
"r. c #B3DB34",
"t. c #B8DF33",
"y. c #B1D53B",
"u. c #B3DC3C",
"i. c #B9DE3C",
"p. c #B4E124",
"a. c #B8E124",
"s. c #B5E12C",
"d. c #BAE42B",
"f. c #B5E133",
"g. c #BAE334",
"h. c #B5E13A",
"j. c #BBE33B",
"k. c #C0E63C",
"l. c #98B846",
"z. c #9EC345",
"x. c #A2C345",
"c. c #A4CC43",
"v. c #A9CD42",
"b. c #A6CC4B",
"n. c #AACD4C",
"m. c #A4C74A",
"M. c #A7D046",
"N. c #ACD444",
"B. c #AED944",
"V. c #A7D048",
"C. c #ACD44B",
"Z. c #AFD84B",
"A. c #B1D544",
"S. c #B4DB43",
"D. c #B9DE45",
"F. c #B2D64B",
"G. c #B3DB4B",
"H. c #B9DE4C",
"J. c #A8CB55",
"K. c #A7C759",
"L. c #AECD5A",
"P. c #A5C854",
"I. c #ADD553",
"U. c #AFD851",
"Y. c #AED559",
"T. c #B2D654",
"R. c #B4DC53",
"E. c #BADE53",
"W. c #B2D65B",
"Q. c #B8D658",
"!. c #B5DC5B",
"~. c #BADE5B",
"^. c #B5E143",
"/. c #BBE243",
"(. c #B6E04B",
"). c #BBE34C",
"_. c #BCE946",
"`. c #B7E052",
"'. c #B6E053",
"]. c #B9E152",
"[. c #BAE155",
"{. c #BBE354",
"}. c #BDE853",
"|. c #B9E25A",
" X c #BCE25B",
".X c #ACD266",
"XX c #B3D662",
"oX c #B3D961",
"OX c #B5DC64",
"+X c #B9DE61",
"@X c #B9DD64",
"#X c #B3D66B",
"$X c #B6DB69",
"%X c #BADD6B",
"&X c #B5D871",
"*X c #BADE73",
"=X c #BCDE7E",
"-X c #B3D671",
";X c #B7E060",
":X c #BBE263",
">X c #BDE26B",
",X c #BEE373",
"<X c #BEE27D",
"1X c #C0E740",
"2X c #C5EE48",
"3X c #C1E65C",
"4X c #C5EB5B",
"5X c #C2E654",
"6X c #C1DF7E",
"7X c #C1E462",
"8X c #C0E56A",
"9X c #C1E867",
"0X c #C4E474",
"qX c #C4E57C",
"wX c #C7EA77",
"eX c #BDDD82",
"rX c #BEE085",
"tX c #C0DC87",
"yX c #C2E383",
"uX c #C5E589",
/* pixels */
"q.A.A.6.Q.A.3.r.A.Q.E.D.i.D.,.,.D.i.,.u.H.Q.Q.>XG.S.8X@XS.Q.(.(.'.^.'.,X X|.;X'._.;X;X>X>X>X}.B.}.^.G.C.@X3XF.F.H.Q.R.E.Q.W.Q.u.",
"e.-.,.e.i.y.e.y.e.<.A.H.F.H./.t.D.t.g.i./.].5X).g.].3XH./.}.(.(.(.(.}. X}.'.G.'.Z.;X}.;X|.Z.B.B.R.W.:X@XQ.].].3Xh.D.S.G.Q.N.3.8.",
"e.e.e.e.y.y.i.i.t.t.>.i.t.t.D.t.i.j.S.E.).).r.u.j.).E.j.r.u.^.(.'.'.Z.w.Z. X'.'.;X'.;X;X'.'.Z.Z.(.2XD.S.S.u.u.B.S.y.S.F.N.F.N.F.",
"e.r.3.e.F.H.Q.i.A.Q.t.e.,.t.A.A.S.i.).:X].).h.E.E.q.u.-.B.B.W.|.].|.'.(.].;X:XR.'.Z.;X;X|.;X|.|.W.W.Q.Q.G.N.N.R.@XF.N.3.v.C.I.Q.",
"3.+.,.r.,.r.D.r.<.H.u.E.E.~.~.i.Q.:XS.R.B.B.OX>X;XB.].^.G.8X>X|.(.}.oXoXY.,X$XY.;X!.I.;X<X-XrX-X>X,X<XW.W.|.W.;X@XF.N.q.C.W.OXI.",
"$.v.A.+.6.i.3.e.8.-.F.>X@X&XuXtXqXtXeX,XOXW.:X8X'.(.].;.9. X(.:X;XoXU.| .XrXY.'.;XV.rXrXrXrXrXrX<X*X,X,X,X,X>X:X XR.E.R. XZ.C.V.",
"x A.$.$.Q.E.A.Q.R.I.>XOXC.Q.@XL.A.G.>X>X>X|.).u./._.u.p.j.].f.:X,X>X;X;X>X>X>X'.C.!.rX$X;X;X;X;XOXW.'.>XW.V.U.Z.Q.Q.R.'.B.w.G.Z.",
"Q.A.6.A.i.6.F.F.q.E.Q.Q.5X~.E.E./. X%XB.G.W.u./.).Q.S.r.>.) *.7.^.^.'.B.9._.;X;X^.h.h.h.'.'.;XZ.(.w.R.OXZ.Z.'.W.:XR.N.C.M...V.3.",
"v.-.D.A.-.&.,.D.D.i.t.1Xi.r.5XD.h./.8.) <.^.;.q.G.B.B.B.;.=.b.C.Z.I.oXZ.h.9.;XZ.Z.Z.;.0.;X!.C.Y.U.Y.U.Z.OX$X'.U.N.0.Z.U.C.z.Z.M.",
"<.~ &.&.<.' P e.r.( ~ ( D.>.i.<.u.8.( ! <.S.r.r.G.0.'.Z.Z.'. XR.Z.Z.;X(.B.U.B.B.;XZ.>X*X*X<XOX;XU.V.Z.B.;XU.;.0.G.&X#XJ.0.V.Y.C.",
"y.,.Q.t.&.Q <.e.+.-.Q q.r.,.-.r.&.&.r.;./.G.r.5X].].}.Z.9.9.w.h.h.B.Z.(.'.U.<X'.'.'.I.!.$X,X;X$XOXZ.}.|.OX|.Z.U.'.>X>XY.0.0.0.5.",
"H.r.y.3.-.:.5XD.t.k.D.k.>.t./.r.) r.3.<.u.&.;.G.).g.h.(.9.;.B.(.(.h.'.}.h.>X;X!.B.B...Z.;X;X!.;X>XZ.9.Z.Z.w.;.B.R.R.7.8.7.Z.|.^.",
"i.,.,.y.u.' >.>.>.a.t.>.' ' t.' r.i.&.d.j.g.r.(.^.u.8X).s.}.}.p.|.h.Z.9.^.B.Z.B.7.w.Z.(.'.V.B.Z.;XZ.w.U.(.J.Z.Z.M.V.7.N.Z.Z.W.'.",
"<.:.t.A.-.,.( <.e.-.e.,.t.>.>.>.j.r.` d.g.j.d.s.f.g.h.f.f.:Xf.^._.` 0.h.Z...B.B.B.B.B.w.B.M.0.B.U.U.B.B.Z.OX|.Z.5.Z.0.#XZ.q.Z.S.",
"J L Q $.T y.y.6.3.3.3.( ' >.k.t.g.>.<.t.t.r.u.h.f.r.;.B.B.h.;.9.` B.B.B.;.Z.'.>X;X'.'.B.Z.Z.M.Z.U.|.W.B.Z.Z.0.M.c.Z.0.V.C.Y.U.C.",
"] 3.,.:.,.S.G.A.8.y.t.t.t.>.t.~.g.;.g.r.G.8.9.;.0...M.C.;.0.0.%.;.I.B...Z.'.'.'.'.;X;XU.Z.I.(.;X:X|.,Xw. X#XV.|.OXV.C.C.Y.Z...x ",
"i.,.<.3.8.e.t.<.<.<.&.5XE.>.t.u.&.e.H.E.D.-.-.7.B.W.G.w.U.Z.Z.U.U...M.Z.'.^.;X>XZ.B..XZ.h.7.;X|.|.^.(.B.Z.Z.'.,X;Xw.R.Z.w.B...7.",
"Q R ( r.D.y.&.+.+.,.r.).F.,.D.y.S.H.@X).g.q.9._.}.>X}._.|._.p.^.I.'.^.}.R.].Z.G.oX;XY.I.Z.B.;X;X|.;X0.Z.Z.;.B.|._ ;.|.W.Z.z.Y.I.",
"i 8.y.e.6.6.o.o.$.u.S.g.i.i.E.8X8X3XE.S.p.f.(.h.h.(.G.R.s.f.B.h.p.}.f.'.W.s.u.Z.B.'.h.h.B.;XY.,XV.;Xw.(.w.| ....;.U.V.7.b.c c.c.",
",.] v.&.i.o.i i.t.t.t.a.>.t.i.r.r./.u.e.u.;.S.^.>.>.8.-.P f.^.9._ p.s.h.*.` <.8.=.%.{ *...'.Y...0.W.Y.B.U.U.U.Z.B.B.9.0.c.q.8.N.",
"R ~ 4.:.:.Y P >.( ) ^ ' / Q ( / <.-.q.N.8.H.u.S.( P =.H./.j.].G.9.h.;.(.9.g.9.S.h...B.Z.B.B.h.D 0.R.B.B.'.Z.'.;X&.r.G.].N.;.*.;.",
"Q $.R $.G Q E o.Q ( Q B Q Q m ) r./.G.q.S.D.-.R.H.u.>X0XwX9XQ.OX|.:X0X,X|.j.q.].|.'.,X;X|.;.V Z.;X;.{ w.0.*.w.Z.r.&.@Xq.9.Q.8.-.",
"Q i $.$.&.3.4.1.r } 0 B [ [ ,.f.u.). X'.)./.S.4XS.]. Xq.C.N.7. Xh./. X8Xg.` s.w.9.w.B.I.B.D { ;XW.D ;.'.V...w.;XC.y.Q.F.R.1.#.v.",
"Y #.F.H.$.e h $.[ 4.4.O.3.u.F.N.[ 3. X X8.5.%.O.3.G.7.G.b.R.B.h.;.u.H.r._ w.D *.V M.Z.}.I.w.(.;XU.9.;.....>X'.z.5.F.N.3.C.b.c.R.",
"Q +.,.:.5 Q Q $.3.A.3.y.<.8.H.v.m.u.-.} f s s g q.G.R.R.B.h.9.B.B.=.M.^ ;.^.) r.3.G.].w.B.I.V.'.7.=.V.U.B.R.q.X.1.C.9.w C.W.Q.Q.",
"T E S 6 Q t.E 8.H.6.y.,.( } $.8.*.;.8.&.#.o.[ S.Q._.u...{ *.;.w...#.S.;.9.<.h.N.=.~ ;.&.w.c.w.;.=.=.|.'.9.V.0.N.F.W.&.} C. XS.).",
"O.R E h e.:.$.3.y.F.t.] T h ~ ( &.&.) ) &.<.r.r.u.<.A } ( D g D A N.*.;.=.D #.Q B &.u.w. XB.B { 7.{ B.{ C.).y.Q.Q.'.( R.8XD.*.e.",
"~ ] ,.:.I ' &.R a.,.J P J -.~ ,.r.&.' P J P O.-.r.&.g ( ) #.[ / s.u.B =.7./ / ;.D.].R.R.Q.5...7.w.Y.#XJ.u.#.x A.Q.S.-.wX5XQ T ,.",
"I R T J R Q ` ^ J ~ J P ~ <.,.( <.O.( ~ P K O.( ,.) ( >.&.>.s.*.%.! *.N.;.*./ _.H.q.#.<.1.6.F.u.).].8X4X' y.A.g.t.' t.5Xi.C +.Y ",
"Y 6 J m G P K F 5 B ( ~ ( ( +.P ( J ! ~ K -.-.) ' ( &.^ ( K *.S %.V 9.b._ { D ) F ..O.) u.).j.r.j.j.j.s.' k.k.' U +.<.&.-.m h 5.",
"R 5 G Y i 2 1 2 o.e.S o.i.&.B P ( ( <.( ) &.B P ^ >.<.P ' ) #.-.! =.S.8.Z F ) S =.Q ( ' ( ,.~ P ' <.r.) >.' U t.( e.-.B C u @.8.",
"G 4 5 i q o 9 T } 6.$.+.o.r B ( Z ) O.O.Q T Z %.O.).S.) -.&.&.{ Q ..-./ 7.u.9.C.5X>.g.O.:.) ~ T e.,.r.F.t.~ J o.4.E i O.o.l h J ",
"J 5 G i 9 0 r I S F.v.h j j :.C r T [ | Z A 8.3.N.S.Z 9.w.B / g g { *.s.).<.;.4X2Xj.g.<.>.<.Q A.o.O.3.) T y r x 4.Q %.#.S [ [ A ",
"G 5 i e Q C G m y.6.> : } g G r r A 3.3.5.G.5.c.F.8.Z.%.{ ..u s ..r.;.).r.P /.8Xr.r.p.P ` C Q +.i ( C 3.Q S +.$.Q Q Q r C O.[ X.",
"m B 6 i E J m > :.y > i Q o ; S d A 3.b.N.u.R.wX>X'.H.v.| k d 5.S.g.3X3X^ s.<.;.G.;.J %.Q 6.y.N.E.3Xy.q.&.! O.Q F C y ; M D 4.Q.",
"4 > = $.E C > i J m B = 4 4 i v.O.B.8XE.w.&.G.c.3.4XN.c./.S.j.4X].1X].H.>.&./ -.=.O.T O.N.S.! <.H.A.r.,.( > Q Q u C > u %.Q 8.} ",
"9 . p +.; 3 ; o.i r o f 1.E 6.] p.$.~ P ~ ,.&.> [ &.D %.( ) 4XS./.*.Z Q Z 1 k g u 6.u D } C C S C Y 3.8.[ $.E.w.o.6.8.v.3.D k X.",
";   f Y e 3 > i 3 ; $.Q.n.y.Q.i.v.x.k.t.).y.T C { B 4 %.T <.s.! D K n 4 0 s w k x #.[ c.b.x.L.l.z L.XXQ.b.:XW.q.F.A.F.5.[ u f k ",
"h 4.A.A.1.y Y Y i G >.f i ] -.u o.( ] <.G.[ r Q Q #.E &.&.' T 8 * M r 8 a x } F #.[ u v.1.& l.z + #.x.K.C.5.r | W.C.q S i k p c ",
"E.A.Q R i ; ~ ] i Q ; ; 5 U T E r n T 8.C r 8.q.f 0 Q T / > = + u C u q y.%.....S e @.1.O & K.[ S #.C.E.qXK.5.z.l.a #.[ 5.C.C.XX",
"] Q G R G L R ] E i 6 R +.~ $.i 7 Z *.=...| A 1 ; > T r - = + % r T [ *.) / S.5.1 q x C w I. XB.u.S.q.%.Q 6.v x.z.X.$.#.Q 6.6.@.",
"t ; G 5 G G G L B i L Y ~ R T B S / Z { [ | ; 1 e ; 9 8 . 8 # X y 9.O./ B %.%.} M X.3.g.A.q.S.#.e.S > B B 4.x #.{ #.S Q O.@.i 1.",
": : 5 : 6 5 5 G 4 E ' Z Y O.b T Z A =.8 b %.# % # 7 p O @ 7 r > O.q.{ C Z 7.A ..=.8.q.=.5.+.[ > r q r C Q [ i J 2 E C 2 O.h r S "
};
