/* XPM */
static char *haru[] = {
/* columns rows colors chars-per-pixel */
"64 48 238 2 ",
"   c #130701",
".  c #2A0B01",
"X  c #2A1405",
"o  c #391C04",
"O  c #3B230A",
"+  c #392512",
"@  c #3A301D",
"#  c #2C2929",
"$  c #4A1E02",
"%  c #4D2A05",
"&  c #462708",
"*  c #4C2C0B",
"=  c #532E0A",
"-  c #553107",
";  c #56320C",
":  c #59350D",
">  c #5E390F",
",  c #472E17",
"<  c #49331A",
"1  c #4A341D",
"2  c #543312",
"3  c #5A3612",
"4  c #543819",
"5  c #553A1C",
"6  c #5C3C1C",
"7  c #62360E",
"8  c #613B16",
"9  c #633D1A",
"0  c #4A3927",
"q  c #533D23",
"w  c #573E26",
"e  c #413D3C",
"r  c #564017",
"t  c #5C411D",
"y  c #66411B",
"u  c #6A441D",
"i  c #624A1C",
"p  c #69481B",
"a  c #6E4E1E",
"s  c #5D4324",
"d  c #5A4427",
"f  c #53422B",
"g  c #5C442C",
"h  c #4D4335",
"j  c #584733",
"k  c #5B4A34",
"l  c #5C4D3C",
"z  c #5E513B",
"x  c #634423",
"c  c #6A4523",
"v  c #6D4924",
"b  c #614829",
"n  c #634A2C",
"m  c #6C4A2A",
"M  c #724723",
"N  c #754B23",
"B  c #784E25",
"V  c #724D2C",
"C  c #6F502F",
"Z  c #76512D",
"A  c #7A5328",
"S  c #7C542B",
"D  c #644D32",
"F  c #684D33",
"G  c #624E3B",
"H  c #6B5234",
"J  c #6A5537",
"K  c #64523B",
"L  c #6C553B",
"P  c #745334",
"I  c #7B5533",
"U  c #775836",
"Y  c #7C5639",
"T  c #735A3C",
"R  c #7C5B3B",
"E  c #77603A",
"W  c #5E5541",
"Q  c #635444",
"!  c #675647",
"~  c #6C5A42",
"^  c #6B5C4A",
"/  c #745D42",
"(  c #795E43",
")  c #6D604E",
"_  c #756145",
"`  c #7B6345",
"'  c #7B6A44",
"]  c #74644C",
"[  c #7C654A",
"{  c #7E694C",
"}  c #776854",
"|  c #7B6C5B",
" . c #727473",
".. c #80572E",
"X. c #835A32",
"o. c #885D37",
"O. c #835C3C",
"+. c #8B6235",
"@. c #8D633B",
"#. c #92673D",
"$. c #835E41",
"%. c #856243",
"&. c #8C6443",
"*. c #826B4D",
"=. c #8A6849",
"-. c #906743",
";. c #936944",
":. c #936B4A",
">. c #976C4B",
",. c #8E734D",
"<. c #98784A",
"1. c #836D53",
"2. c #886F56",
"3. c #976F51",
"4. c #857155",
"5. c #8B7455",
"6. c #84735C",
"7. c #8B755A",
"8. c #897A5B",
"9. c #8D7A5C",
"0. c #947253",
"q. c #9A7354",
"w. c #927B5C",
"e. c #99795A",
"r. c #A37C5A",
"t. c #867765",
"y. c #8C7B64",
"u. c #927D63",
"i. c #967D65",
"p. c #877C74",
"a. c #A57E61",
"s. c #7F8079",
"d. c #9D8048",
"f. c #998159",
"g. c #AC845A",
"h. c #958164",
"j. c #9C8464",
"k. c #95826B",
"l. c #9B856C",
"z. c #9C896C",
"x. c #8B8172",
"c. c #968876",
"v. c #9C8C75",
"b. c #9D9178",
"n. c #A48466",
"m. c #A38C6C",
"M. c #AC8B6C",
"N. c #B48A68",
"B. c #AC9369",
"V. c #B59769",
"C. c #A38E73",
"Z. c #AA8E76",
"A. c #B28E73",
"S. c #B98F70",
"D. c #A49174",
"F. c #AB9474",
"G. c #AD9977",
"H. c #A5937B",
"J. c #AB9579",
"K. c #AD997B",
"L. c #BB9475",
"P. c #BA977A",
"I. c #B59879",
"U. c #B39D7B",
"Y. c #B5A06D",
"T. c #B9A27E",
"R. c #C39A77",
"E. c #CBA27E",
"W. c #677C8C",
"Q. c #778691",
"!. c #7491AA",
"~. c #8D8D8B",
"^. c #9C9487",
"/. c #A69885",
"(. c #AB9A80",
"). c #B49E82",
"_. c #BD9D81",
"`. c #B49F8A",
"'. c #B5A183",
"]. c #BBA384",
"[. c #BAA58A",
"{. c #B7A98E",
"}. c #BCAA8E",
"|. c #BCAC93",
" X c #B6AC9A",
".X c #B9AB9A",
"XX c #919CA5",
"oX c #9AA7B0",
"OX c #B4B2AF",
"+X c #BEB5A9",
"@X c #C39E81",
"#X c #C7A385",
"$X c #C3AA86",
"%X c #C6A58B",
"&X c #C2AC8C",
"*X c #CAAB8D",
"=X c #D2AC8B",
"-X c #CAB18C",
";X c #D3B08B",
":X c #C2AE93",
">X c #CDAD92",
",X c #C1AF99",
"<X c #D1AE94",
"1X c #C5B295",
"2X c #CBB594",
"3X c #CCB897",
"4X c #CAB59A",
"5X c #CCBA9C",
"6X c #D5B798",
"7X c #D2BD9D",
"8X c #C6B9A7",
"9X c #CCBDA3",
"0X c #D3BCA2",
"qX c #D5BDA7",
"wX c #DBBDA3",
"eX c #C4BEB6",
"rX c #D8C19D",
"tX c #CDC2A8",
"yX c #D4C2A5",
"uX c #D3C5AB",
"iX c #DAC7A8",
"pX c #DBCAAD",
"aX c #CBC3B6",
"sX c #D5C5B2",
"dX c #DBCCB2",
"fX c #D3C8BB",
"gX c #DDD1B8",
"hX c #E2C5AB",
"jX c #E4C8A9",
"kX c #E6CBB3",
"lX c #E3D3B9",
"zX c #9FB3C3",
"xX c #D7CDC4",
"cX c #DBD1C3",
"vX c #E6D7C5",
"bX c #F1DCC8",
"nX c #F4E9DD",
"mX c #FAF1E3",
/* pixels */
"uXgXU.7.'.5.9.lXiX$XyXF.,.U.iXiX$X5._ g F.].5._ F t b ' J , / *./ D D _ 5.1._ b , r k D L 1 ( [ _ L b b t r t Z U } f 1 { j.T.iX",
"5XgX].5.K.9.5.dXpX$X7Xm.,.U.pXiX].5.1.4 ].K._ L x s L _ f 1 _ _ ( D J %.1.1./ w , b g T g g [ _ _ T x g 4 t b J U { 1 b 5.D.&XjX",
"{.gX5Xf.m.h.*.uXgX$X7XB.,._.iXiXU.7.*.r ].j._ L g b / _ 1 g %._ / D T _ R *.F , 2 g K _ 1 K / / E D b 4 3 s J Y 1.b 1 _ z.Y.rXjX",
"(.dXyXh.j.D._ 4XiX$X5XM.,.].iXuX'.y.' b 1Xh._ T x D =.^ 1 ^ [ _ L D / _ *._ k O g D _ D s E ' / T b b 4 t J _ 5.9.0 E w.z.E.iXpX",
"b.uXiXz.f.b.' |.pX&X4Xn.,.].pXiX[.h.*.y.:Xw.*.J 4 J =.f 0 _ _ ( D K _ 1._ ( w 1 F F _ w K =.1.=.Y ~ s s E 5.j.'.4.U m.j.V.rXrXrX",
"f.tXdXD.4.z.' }.lXT.2XB.0.}.pXpX[.D.4.(.[.5.' b s T ' 0 K =.( ' L &.w.1.*._ , L L 7.( D i.C.C.j.i.' b U w.G.$X$X*.F.G.m.&XrXrXrX",
"{ |.gXU.' b.' {.gXE.&XB.e.1XpXyX}.D.4.1XH.5.{ s s } _ 0 _ *._ ( 1.j.i.w.w./ g 1.1.c.' h.}.$X$XU.F.E Y ,.U.2XjXK.f.$XG.$XrXrX-XY.",
"_ (.gX}.{ K.' K.gX&X].n.f.4XiX7X$Xi.k.9XF.j.4.s b [ ~ K k.e.w.j.H.C.F.K.D.L i.y.U.l.1.4XuX7X7X7XM.R *.M.2XhX5Xf.T.T.Y.2XrX2XT.U.",
"k b.dX|.4.G.| K.gX-XT.j.f.3XiX5X}.G H.}.D.F.5.g T 1.K 6.U.m.H.[.'.'.|.1XF.*.H.H.].e.C.uXiXyXdX3X,.I 0.T.7XjXG.m.-XF.Y.rXrXT.G.V.",
"f k.uXrXf.F.| b.pXrXY.f.z.tXyX3Xk.h $X`.H.'._ D _ 1.J K.`.].5X4XP.:X}.4XC._.F.:XU.w.$X7XyXiXpXG.E =.m.$XrX3XF.-XT.m.E.2X&XY.G.E ",
"k h.tXuXf.b.| f.iXrXG.z.v.dXuX1Xl _ 4X'.4X].' ' 6._ 1.`.U.0X0X_.:X,X$X$X[.H./.%Xm.C.0XiXyXpX7X,.E <.G.4XiX].}.1Xm.G.6XrXU.Y.5.a ",
"z ) |.uXz.z.h.' rXrXG.z.'.gXdXK.0 D.|.'.7XT._ w.5.^ C.U.7X7X(.(.:X'.|.'.`.l.@X@X9.[.yXdXyX7XK.E @.j.T.3XtX-XyX'.n.$X6XT.'.c.a J ",
"| J K.gXD.h.h._ yX7XG.v..XgXuXp.l |.{.'.}.H.7.6.~ _ K.1X4XC.l.I._.#X>X>X>X@X=X<X>X0X0X0X0X9X,.P 5.F.$XrX}.3X1Xz.V.2X].T.K.J C ,.",
"b.z b.uX{.4.v.E 5XuXU.F.4XuX1X6.9.}.K.'.v.v.p._ k } z.(.H.M.P.@X<XqXhXhXhXhX%X%X6X>X>X>X0X_.L I 5.m.-X}.D.T.F.B.-X3X|.+X5.b f.F.",
" XW h.tX|.f.c.T 4XuXT.{.9X1X'.y.K.K.K.|.b.p.y.l 0 } i.:X0X%X@X<XqXkXkXkXkXhX#XR.P.Z.N.M.P.Z.R K K 4.'.4.5.z.5.G.1XtXxXaX/.f.f.U.",
"tX) E 1XtX4.c.T |.uX(.4X8X.X'.D.}.v.H..XK.} } Q ~ _ 3.A.wXhXhXkXkXlXkXhXwX7XR.A.A.A.P.P.L.a.e.R r T ' J { 4.j.T.8XxXxXxXxXU.z.}.",
"'.h.z {.tXh.k.) }.uX|.|.8X'.v./.(.Z.`.`.Z./.`.a.Z.i.3.n.%XhXlXbXhXhX<X@XL.A.a.A.>X<XhXhX<Xa.e._.v.~ K U 1.9.G.5XlXvXvXfXxXsXH.4X",
"5.b.l b.pXh.h.J K.yX}.+X Xc.y.Z.#X@XL.L.N.'.>XP.L.@Xn.e.I.*X7XhXsX0X@X@X%X_.a._.qXkXkXhXwXR.3.>XbXv.K _ 4.m.[.dXdX9XuXlXfXxX9X2X",
"a K.z f.tXb.h.' C.yX[.8Xb.y.a.>X%XL.3.a.@XZ.%XL.S.#XP.r.r.M.I.L.@X%X<XqXvX0XA.A.<XhXhXhXwX@X`.qXnX.X{ ' w.U.oXoX`.j.`.lXgXxXgX$X",
"a 9.} } tXj.s.} /.uX`.t.l.e.=.a.R.N.3.$.A.@X>X@XR.%XR.n.:.:.3.q.q.n.;XbXnXxXM.e.#XwXhXhXhXhXqXkXvXsX5.' m.H..XxXfX+X|.+XxXfXaXfX",
"+.a 9.) tXG.s.E c.0X1.G =.M 6 M 3.R.N.#.V R.%XR.E.=XR.r.=.&.$.O.Z O.r.lXmXvXZ.$.r.R.A.@XkXfXqXfXaX{.1.i.(.XXeXxXcXxXvXzXzXzXeXfX",
"<.> { z {.{.h.' i.qX/ L $.V $.A.<X<X#Xr.$.r.R.A.R.=XN.<.&.%.$.Z 9 M O._.vXqXy.~ O.&.V V `.qXcXcXcX.X^.p.~.XXoXOXcXfXfXxXOXoXuXdX",
"d.> b z b.1Xs.J y.<X! F $.$.V.=XwXkXkXjXwX#Xr.a.S.N.@X_.i.@.$.I 9 9 m q.(.i./ ( 3.3.c 9 a.fXvXvXcX8XeX^.c.4XeX8XH.H..XOX.Xl.j.`.",
"#.> - i s. Xf.k ] ,X( w $.3.R.A.=XhXkXkXbXkXa.N.#XR.0X4Xi.$.( P 3 6 R n.a.i.G g r.a.$.V 3.qXxXcXpX8X8X.Xc.c.|.4XH._ 7.~. . .6.f.",
"S r & & z b.| h z D.' f %.i.A.i.O.R.=XwXhX#XP.>X6X6XwX4Xi.$.P V 6 N e.&X'.}.1.1 %.R.r.X.O.R.qXqX4X5X X/.H.6.i.(.P.n.F.G.b. .x.T.",
"a r o o + _ L @ @ { ) W ^ Z._.a.! 3.r.R.hXqX_.6XwXwXhX%Xi.R g s I #.R.0XeXsX.XL w n.R.#.N q._._.U.'.T.k.y.p.y.k.z.z.z.m.D.v.v.D.",
"a 2 . o X 1 f X + K ) ~.t.i.$X].e.$.q.E.=X0Xv.'.hXsX6XI.4.b 4 6 &.g.=X4X8X.X(.k.w D V.3.c a.i.i.m.F.F.h.6.y.y.y.i.i.l.k.k.k.l.k.",
"a 2 . .   + f X + f l ~. X8X9X{.7.&.O.3.2.|  .XXaXeXi.[ b s x b @.:.N.L.H.p.1._ J 1 O.X.9 O.1.0.i.i.i.p.i.i.y.y.6.y.k.k.k.i.y.e.",
"i 4 X . . X + o O O 1 p.OXuXgXtXi.1.! h # e Q.!.XXXX6.~ g P Z m P V R q.*.6.7.k 1 , 6 2 2 T O.2.9.7.t.7.y.i.i.C.F.U.m.e.e.=.&.&.",
"i r X . . . X % % % 2 |  X+XgXlX%X^.H.| l  .Q.Q.W.Q.{.'.h.R I m x m R m P 5.i.! 0 , 6 2 6 L L ^ } 6.1.y.i.r.w.q.q.;.;.;.&.&.:.q.",
"i r O X     o % - - - Q ^.OXtXuXqXsXiXtX.XtX|.~.W.c.K.m.4.P I S w x Z b b l l G j w x 4 F ( J J T Y Y I X.X.@.@.@.;.;.#.&.;.0.0.",
"i i & O X O & - - - * j p./.|.tX8X4X}.[.{.K.b.b.p.y.6.| ~ J Z P x , w h l l k f w V 6 6 b c x m S S X.X.O.+.@.@.@.;.:.;.:.q.0.:.",
"i i r : = = = : - - * w ^ p.^././.~.c.k.t.t.t.t.| | } ] K b v P J g h D G b 1 1 L m 4 w g w Z S X.X.X.X.X.#.#.#.#.#.#.;.3.3.;.&.",
"i a v y : : : : 9 3 - 0 ! } | y.| } } } | } } } } } ^ Q k 1 6 P P w 6 9 9 8 6 Z _ g + w 0 4 S S S X...X.+.+.#.#.#.;.;.:.3.:.&.;.",
"i i B B y 7 : : 9 - 2 w l l Q ! ! ! ^ ) ) ) ) ) ~ Q l 0 0 o 2 b T N M N N c 6 F j < + 0 , s S S X.X.X.+.+.#.#.#.#.;.;.3.:.:.:.:.",
"i u B B u > - : 9 3 3 w h h l Q ! ! Q ! Q l z k f 4 2 , & o O 2 m _ V S S N - 1 < 6 > 2 f Z X.X.X.X.S +.+.+.@.#.#.-.:.3.;.&.:.3.",
"a i i a > : = : 3 8 - 4 0 l l Q l G k w 4 6 3 3 6 y 8 8 3 * O & w ' T S ..B N 3 3 a N N A S I X.....X.+.+.+.O.#.@.3.3.-.;.:.3.q.",
"3 t i > 3 = : : 3 6 - * 1 w w w 6 6 3 9 3 y y y u u u 9 8 > % o 4 D g v B B B N B B N S I S I S ......X.X.X.X.&.#.#.&.&.&.3.q.q.",
"a C t - - - 3 - 3 9 9 - 3 2 3 3 3 8 8 8 8 y y u y u u y 9 8 - o & D w w B B B B A B B S S ..S X.....X...X.X.O.#.O.&.&.&.:.3.q.q.",
"J ' 6 2 - : : 2 - 3 3 3 3 3 3 9 8 8 9 9 y y u u u y y y y u 3 % o w g 6 N B B B B B B S S ....S ....Y S U S X.O.O.O.$.:.3.3.i.q.",
"E f.J t f - = - 2 - 3 3 3 3 8 3 8 8 c 9 9 9 M u u u u u u 8 y > & 1 g 8 7 ..u u ..............S I ..I I Y Y Y Y X.$.:.:.:.:.3.3.",
"' j.E 1 6 2 % = - : 3 3 8 3 3 8 8 9 9 9 9 9 9 u u u u u u u u 8 8 3 8 M ..u ............A A B B B I M V M V V V X.O.$.$.:.=.3.=.",
"f.Y.d.1 4 - % % = - - 4 - 3 y 9 8 9 9 9 9 u u 9 u u u u u u u u 9 9 M N u ..9 ......7 ..N N N N M B V c M V F V O.$.$.$.$.$.$.$.",
"B.Y.f.r 2 % % = - - 2 > 3 3 3 9 s 9 9 9 9 9 9 u 9 u u u u u a 9 M M B N ........N ..u ..B 9 M u M M M V V M V Y O.O.$.$.$.$.$.$.",
"V.B.f.4 * % % % = - - > 3 3 8 8 8 9 9 9 9 7 M u u u 9 9 9 M c c M u N N N N ....N N ..u u u 9 M 9 M c M c V V V Y Y Y Y $.$.$.( ",
"V.B.5.- * % % % = = - - 3 3 3 8 8 9 9 9 9 9 9 9 9 9 u u M 9 9 9 u u u N M M 9 ....7 u u u u M M 9 M 9 c c V V Y V Y Y Y ( V V g ",
"V.B.@.& $ % % % = = 2 - 3 3 3 6 8 8 8 8 9 9 9 9 u u M u 7 M c 8 y y y u M M u u 7 7 ..u u a : 7 c 9 c 9 c c M V V V V V F F j w ",
"d.d.b o $ % % % = = = - 3 3 3 9 3 3 7 9 9 9 9 9 9 9 9 9 9 u c 9 y y y u u u u u 7 ..7 7 7 u u u 9 c 9 c c c c F V F F g w 0 0 e "
};
